<svg width="240" height="241" viewBox="0 0 240 241" fill="none" xmlns="http://www.w3.org/2000/svg">
<path d="M90 0.899996C85.3 2.4 81.2 4.9 78.7 7.9C74 13.6 73.5 16.7 73.5 42.5C73.6 69.3 74.3 73.7 80.5 86C86.2 97.2 94.8 107.5 117.7 130.1C133.7 145.8 140.5 153.3 143.3 158.1L147 164.5L146.8 193L146.5 221.5L120.6 221.8C102.4 222 94.3 221.7 93.4 220.9C92.3 220 92 215.5 92 200V180.2L89.1 177.8C86 175.1 78.4 172.6 75.4 173.2C73.6 173.5 73.5 174.9 73.5 198.5C73.5 223.4 73.5 223.6 76.1 228.5C78.9 234.1 84.7 238.7 90.6 240C92.7 240.5 106 241 120.1 241C149.8 241 153.8 240.3 159.9 234C162 231.9 164.2 228.4 164.8 226.2C165.6 223.6 166 212.6 166 192.9C165.9 151 166.7 152.7 131.5 117.5C106.5 92.5 99.4 83.7 94.9 72.3C92.9 67 92.6 64.4 92.2 44C91.9 24.9 92 21.2 93.3 20.2C94.4 19.3 101.3 19 120.6 19.2L146.5 19.5L147 39.8L147.5 60.2L150.5 62.6C153.6 65.1 161 68 164.2 68C166 68 166.1 66.8 165.8 41.2L165.5 14.3L162.8 10.2C161.3 8 157.9 4.8 155.3 3.3L150.5 0.499996L121.5 0.299996C105.6 0.199996 91.4 0.499996 90 0.899996Z" fill="black"/>
<path d="M147 69.5C147 74.8 149.3 81 152.7 85C159.1 92.5 159 92.4 191.5 93L220.5 93.5V120.5V147.5L192.2 147.8L164 148L166.5 151.8C167.8 153.8 169.6 158 170.3 161L171.7 166.5H198.2H224.7L229.5 163.5C233.1 161.3 235.2 159 237.2 155.1L240 149.8V121C240 102 239.6 91.2 238.8 88.9C237 83.6 234.3 80.2 229.2 77.3L224.5 74.5L192.5 74L160.5 73.5L154.5 70.5C151.2 68.9 148.2 67.4 147.8 67.2C147.3 67 147 68 147 69.5Z" fill="black"/>
<path d="M14.2 75.3C9.20001 77.2 4.40001 81.5 2.10001 86.4C1.21593e-05 90.7 -0.0999878 91.8 0.200012 121.8L0.500012 152.8V157C-0.899988 159.8 8.6 164.1 11 165.5C15.5 168 15.6 166.5 49 167C81.2 167.5 82.7 167.6 86.7 169.7C88.9 170.9 91 172.5 91.3 173.2C91.6 173.9 91.9 172.3 91.9 169.7C92 164.1 89.9 158.6 86.2 154.7C80.5 148.6 80.1 148.5 48.5 148L19.5 147.5V120.5V93.5L48.7 93.2L77.9 93L75 87.6C73.5 84.6 71.9 80.3 71.5 78.1L70.8 74L44.2 74.1C26.3 74.1 16.4 74.5 14.2 75.3Z" fill="black"/>
</svg>
